<?xml version="1.0" encoding="UTF-8" standalone="no"?>
<!DOCTYPE svg PUBLIC "-//W3C//DTD SVG 1.1//EN"
 "http://www.w3.org/Graphics/SVG/1.1/DTD/svg11.dtd">
<!-- Generated by graphviz version 14.0.2 (20251019.1705)
 -->
<!-- Title: Architecture Pages: 1 -->
<svg width="3369pt" height="309pt"
 viewBox="0.00 0.00 3369.00 309.00" xmlns="http://www.w3.org/2000/svg" xmlns:xlink="http://www.w3.org/1999/xlink">
<g id="graph0" class="graph" transform="scale(1 1) rotate(0) translate(4 305.2)">
<title>Architecture</title>
<polygon fill="white" stroke="none" points="-4,4 -4,-305.2 3365.1,-305.2 3365.1,4 -4,4"/>
<g id="clust1" class="cluster">
<title>cluster_legend</title>
<path fill="#7f8c8d" stroke="#7f8c8d" stroke-width="2" d="M3261.1,-109.9C3261.1,-109.9 3341.1,-109.9 3341.1,-109.9 3347.1,-109.9 3353.1,-115.9 3353.1,-121.9 3353.1,-121.9 3353.1,-281.2 3353.1,-281.2 3353.1,-287.2 3347.1,-293.2 3341.1,-293.2 3341.1,-293.2 3261.1,-293.2 3261.1,-293.2 3255.1,-293.2 3249.1,-287.2 3249.1,-281.2 3249.1,-281.2 3249.1,-121.9 3249.1,-121.9 3249.1,-115.9 3255.1,-109.9 3261.1,-109.9"/>
<text xml:space="preserve" text-anchor="middle" x="3301.1" y="-279.7" font-family="Helvetica,sans-Serif" font-size="10.00">Legend</text>
</g>
<!-- root -->
<g id="node1" class="node">
<title>root</title>
<path fill="#ff6b6b" stroke="black" stroke-width="3" d="M2925.57,-265.2C2925.57,-265.2 2860.62,-265.2 2860.62,-265.2 2854.62,-265.2 2848.62,-259.2 2848.62,-253.2 2848.62,-253.2 2848.62,-241.2 2848.62,-241.2 2848.62,-235.2 2854.62,-229.2 2860.62,-229.2 2860.62,-229.2 2925.57,-229.2 2925.57,-229.2 2931.57,-229.2 2937.57,-235.2 2937.57,-241.2 2937.57,-241.2 2937.57,-253.2 2937.57,-253.2 2937.57,-259.2 2931.57,-265.2 2925.57,-265.2"/>
<text xml:space="preserve" text-anchor="middle" x="2893.1" y="-242.92" font-family="Helvetica,sans-Serif" font-size="12.00" fill="white">compiler</text>
</g>
<!-- root_0 -->
<g id="node2" class="node">
<title>root_0</title>
<polygon fill="#4ecdc4" stroke="black" stroke-width="2" points="1330.7,-157.2 1327.7,-161.2 1306.7,-161.2 1303.7,-157.2 1245.5,-157.2 1245.5,-114.6 1330.7,-114.6 1330.7,-157.2"/>
<text xml:space="preserve" text-anchor="middle" x="1288.1" y="-137.85" font-family="Helvetica,sans-Serif" font-size="9.00" fill="white">compilers/</text>
<text xml:space="preserve" text-anchor="middle" x="1288.1" y="-127.35" font-family="Helvetica,sans-Serif" font-size="9.00" fill="white">(16)</text>
</g>
<!-- root&#45;&gt;root_0 -->
<g id="edge1" class="edge">
<title>root&#45;&gt;root_0</title>
<path fill="none" stroke="#7f8c8d" stroke-width="1.5" d="M2847.22,-247C2585.05,-247 1288.1,-247 1288.1,-247 1288.1,-247 1288.1,-190.54 1288.1,-158.12"/>
</g>
<!-- root_1 -->
<g id="node19" class="node">
<title>root_1</title>
<polygon fill="#4ecdc4" stroke="black" stroke-width="2" points="2735.82,-157.2 2732.82,-161.2 2711.82,-161.2 2708.82,-157.2 2648.38,-157.2 2648.38,-114.6 2735.82,-114.6 2735.82,-157.2"/>
<text xml:space="preserve" text-anchor="middle" x="2692.1" y="-137.85" font-family="Helvetica,sans-Serif" font-size="9.00" fill="white">optimizers/</text>
<text xml:space="preserve" text-anchor="middle" x="2692.1" y="-127.35" font-family="Helvetica,sans-Serif" font-size="9.00" fill="white">(3)</text>
</g>
<!-- root&#45;&gt;root_1 -->
<g id="edge18" class="edge">
<title>root&#45;&gt;root_1</title>
<path fill="none" stroke="#7f8c8d" stroke-width="1.5" d="M2855.38,-227.83C2855.38,-195.97 2855.38,-136 2855.38,-136 2855.38,-136 2785.06,-136 2736.72,-136"/>
</g>
<!-- root_2 -->
<g id="node23" class="node">
<title>root_2</title>
<polygon fill="#4ecdc4" stroke="black" stroke-width="2" points="2924.07,-157.2 2921.07,-161.2 2900.07,-161.2 2897.07,-157.2 2862.12,-157.2 2862.12,-114.6 2924.07,-114.6 2924.07,-157.2"/>
<text xml:space="preserve" text-anchor="middle" x="2893.1" y="-137.85" font-family="Helvetica,sans-Serif" font-size="9.00" fill="white">utils/</text>
<text xml:space="preserve" text-anchor="middle" x="2893.1" y="-127.35" font-family="Helvetica,sans-Serif" font-size="9.00" fill="white">(2)</text>
</g>
<!-- root&#45;&gt;root_2 -->
<g id="edge22" class="edge">
<title>root&#45;&gt;root_2</title>
<path fill="none" stroke="#7f8c8d" stroke-width="1.5" d="M2893.1,-227.81C2893.1,-208.38 2893.1,-178.5 2893.1,-158.12"/>
</g>
<!-- root_3 -->
<g id="node26" class="node">
<title>root_3</title>
<path fill="#45b7d1" stroke="black" stroke-width="2" d="M3043.2,-157.2C3043.2,-157.2 2979,-157.2 2979,-157.2 2973,-157.2 2967,-151.2 2967,-145.2 2967,-145.2 2967,-126.6 2967,-126.6 2967,-120.6 2973,-114.6 2979,-114.6 2979,-114.6 3043.2,-114.6 3043.2,-114.6 3049.2,-114.6 3055.2,-120.6 3055.2,-126.6 3055.2,-126.6 3055.2,-145.2 3055.2,-145.2 3055.2,-151.2 3049.2,-157.2 3043.2,-157.2"/>
<text xml:space="preserve" text-anchor="middle" x="3011.1" y="-137.85" font-family="Helvetica,sans-Serif" font-size="9.00" fill="#2c3e50">__init__.py</text>
<text xml:space="preserve" text-anchor="middle" x="3011.1" y="-127.35" font-family="Helvetica,sans-Serif" font-size="9.00" fill="#2c3e50">2L</text>
</g>
<!-- root&#45;&gt;root_3 -->
<g id="edge25" class="edge">
<title>root&#45;&gt;root_3</title>
<path fill="none" stroke="#7f8c8d" stroke-width="1.5" d="M2930.82,-227.83C2930.82,-195.97 2930.82,-136 2930.82,-136 2930.82,-136 2947.88,-136 2966.27,-136"/>
</g>
<!-- root_4 -->
<g id="node27" class="node">
<title>root_4</title>
<path fill="#45b7d1" stroke="black" stroke-width="2" d="M3201.7,-157.2C3201.7,-157.2 3110.5,-157.2 3110.5,-157.2 3104.5,-157.2 3098.5,-151.2 3098.5,-145.2 3098.5,-145.2 3098.5,-126.6 3098.5,-126.6 3098.5,-120.6 3104.5,-114.6 3110.5,-114.6 3110.5,-114.6 3201.7,-114.6 3201.7,-114.6 3207.7,-114.6 3213.7,-120.6 3213.7,-126.6 3213.7,-126.6 3213.7,-145.2 3213.7,-145.2 3213.7,-151.2 3207.7,-157.2 3201.7,-157.2"/>
<text xml:space="preserve" text-anchor="middle" x="3156.1" y="-137.85" font-family="Helvetica,sans-Serif" font-size="9.00" fill="#2c3e50">base_compiler.py</text>
<text xml:space="preserve" text-anchor="middle" x="3156.1" y="-127.35" font-family="Helvetica,sans-Serif" font-size="9.00" fill="#2c3e50">49L</text>
</g>
<!-- root&#45;&gt;root_4 -->
<g id="edge26" class="edge">
<title>root&#45;&gt;root_4</title>
<path fill="none" stroke="#7f8c8d" stroke-width="1.5" d="M2938.91,-247C3014.26,-247 3156.1,-247 3156.1,-247 3156.1,-247 3156.1,-190.54 3156.1,-158.12"/>
</g>
<!-- root_0_0 -->
<g id="node3" class="node">
<title>root_0_0</title>
<path fill="#45b7d1" stroke="black" stroke-width="2" d="M76.2,-42.6C76.2,-42.6 12,-42.6 12,-42.6 6,-42.6 0,-36.6 0,-30.6 0,-30.6 0,-12 0,-12 0,-6 6,0 12,0 12,0 76.2,0 76.2,0 82.2,0 88.2,-6 88.2,-12 88.2,-12 88.2,-30.6 88.2,-30.6 88.2,-36.6 82.2,-42.6 76.2,-42.6"/>
<text xml:space="preserve" text-anchor="middle" x="44.1" y="-23.25" font-family="Helvetica,sans-Serif" font-size="9.00" fill="#2c3e50">__init__.py</text>
<text xml:space="preserve" text-anchor="middle" x="44.1" y="-12.75" font-family="Helvetica,sans-Serif" font-size="9.00" fill="#2c3e50">2L</text>
</g>
<!-- root_0&#45;&gt;root_0_0 -->
<g id="edge2" class="edge">
<title>root_0&#45;&gt;root_0_0</title>
<path fill="none" stroke="#7f8c8d" stroke-width="1.5" d="M1244.55,-152C1024.38,-152 44.1,-152 44.1,-152 44.1,-152 44.1,-80.76 44.1,-43.47"/>
</g>
<!-- root_0_1 -->
<g id="node4" class="node">
<title>root_0_1</title>
<path fill="#45b7d1" stroke="black" stroke-width="2" d="M229.07,-42.6C229.07,-42.6 143.12,-42.6 143.12,-42.6 137.12,-42.6 131.12,-36.6 131.12,-30.6 131.12,-30.6 131.12,-12 131.12,-12 131.12,-6 137.12,0 143.12,0 143.12,0 229.07,0 229.07,0 235.07,0 241.07,-6 241.07,-12 241.07,-12 241.07,-30.6 241.07,-30.6 241.07,-36.6 235.07,-42.6 229.07,-42.6"/>
<text xml:space="preserve" text-anchor="middle" x="186.1" y="-23.25" font-family="Helvetica,sans-Serif" font-size="9.00" fill="#2c3e50">cpp_compiler.py</text>
<text xml:space="preserve" text-anchor="middle" x="186.1" y="-12.75" font-family="Helvetica,sans-Serif" font-size="9.00" fill="#2c3e50">31L</text>
</g>
<!-- root_0&#45;&gt;root_0_1 -->
<g id="edge3" class="edge">
<title>root_0&#45;&gt;root_0_1</title>
<path fill="none" stroke="#7f8c8d" stroke-width="1.5" d="M1244.56,-148C1040.21,-148 186.1,-148 186.1,-148 186.1,-148 186.1,-79.67 186.1,-43.37"/>
</g>
<!-- root_0_2 -->
<g id="node5" class="node">
<title>root_0_2</title>
<path fill="#45b7d1" stroke="black" stroke-width="2" d="M394.45,-42.6C394.45,-42.6 295.75,-42.6 295.75,-42.6 289.75,-42.6 283.75,-36.6 283.75,-30.6 283.75,-30.6 283.75,-12 283.75,-12 283.75,-6 289.75,0 295.75,0 295.75,0 394.45,0 394.45,0 400.45,0 406.45,-6 406.45,-12 406.45,-12 406.45,-30.6 406.45,-30.6 406.45,-36.6 400.45,-42.6 394.45,-42.6"/>
<text xml:space="preserve" text-anchor="middle" x="345.1" y="-23.25" font-family="Helvetica,sans-Serif" font-size="9.00" fill="#2c3e50">csharp_compiler.py</text>
<text xml:space="preserve" text-anchor="middle" x="345.1" y="-12.75" font-family="Helvetica,sans-Serif" font-size="9.00" fill="#2c3e50">29L</text>
</g>
<!-- root_0&#45;&gt;root_0_2 -->
<g id="edge4" class="edge">
<title>root_0&#45;&gt;root_0_2</title>
<path fill="none" stroke="#7f8c8d" stroke-width="1.5" d="M1244.51,-143C1059.05,-143 345.1,-143 345.1,-143 345.1,-143 345.1,-78.41 345.1,-43.34"/>
</g>
<!-- root_0_3 -->
<g id="node6" class="node">
<title>root_0_3</title>
<path fill="#45b7d1" stroke="black" stroke-width="2" d="M562.95,-42.6C562.95,-42.6 461.25,-42.6 461.25,-42.6 455.25,-42.6 449.25,-36.6 449.25,-30.6 449.25,-30.6 449.25,-12 449.25,-12 449.25,-6 455.25,0 461.25,0 461.25,0 562.95,0 562.95,0 568.95,0 574.95,-6 574.95,-12 574.95,-12 574.95,-30.6 574.95,-30.6 574.95,-36.6 568.95,-42.6 562.95,-42.6"/>
<text xml:space="preserve" text-anchor="middle" x="512.1" y="-23.25" font-family="Helvetica,sans-Serif" font-size="9.00" fill="#2c3e50">generic_compiler.py</text>
<text xml:space="preserve" text-anchor="middle" x="512.1" y="-12.75" font-family="Helvetica,sans-Serif" font-size="9.00" fill="#2c3e50">53L</text>
</g>
<!-- root_0&#45;&gt;root_0_3 -->
<g id="edge5" class="edge">
<title>root_0&#45;&gt;root_0_3</title>
<path fill="none" stroke="#7f8c8d" stroke-width="1.5" d="M1244.72,-138C1081.29,-138 512.1,-138 512.1,-138 512.1,-138 512.1,-77.38 512.1,-43.53"/>
</g>
<!-- root_0_4 -->
<g id="node7" class="node">
<title>root_0_4</title>
<path fill="#45b7d1" stroke="black" stroke-width="2" d="M711.82,-42.6C711.82,-42.6 630.37,-42.6 630.37,-42.6 624.37,-42.6 618.37,-36.6 618.37,-30.6 618.37,-30.6 618.37,-12 618.37,-12 618.37,-6 624.37,0 630.37,0 630.37,0 711.82,0 711.82,0 717.82,0 723.82,-6 723.82,-12 723.82,-12 723.82,-30.6 723.82,-30.6 723.82,-36.6 717.82,-42.6 711.82,-42.6"/>
<text xml:space="preserve" text-anchor="middle" x="671.1" y="-23.25" font-family="Helvetica,sans-Serif" font-size="9.00" fill="#2c3e50">go_compiler.py</text>
<text xml:space="preserve" text-anchor="middle" x="671.1" y="-12.75" font-family="Helvetica,sans-Serif" font-size="9.00" fill="#2c3e50">26L</text>
</g>
<!-- root_0&#45;&gt;root_0_4 -->
<g id="edge6" class="edge">
<title>root_0&#45;&gt;root_0_4</title>
<path fill="none" stroke="#7f8c8d" stroke-width="1.5" d="M1244.71,-134C1104.27,-134 671.1,-134 671.1,-134 671.1,-134 671.1,-76.41 671.1,-43.57"/>
</g>
<!-- root_0_5 -->
<g id="node8" class="node">
<title>root_0_5</title>
<path fill="#45b7d1" stroke="black" stroke-width="2" d="M867.2,-42.6C867.2,-42.6 779,-42.6 779,-42.6 773,-42.6 767,-36.6 767,-30.6 767,-30.6 767,-12 767,-12 767,-6 773,0 779,0 779,0 867.2,0 867.2,0 873.2,0 879.2,-6 879.2,-12 879.2,-12 879.2,-30.6 879.2,-30.6 879.2,-36.6 873.2,-42.6 867.2,-42.6"/>
<text xml:space="preserve" text-anchor="middle" x="823.1" y="-23.25" font-family="Helvetica,sans-Serif" font-size="9.00" fill="#2c3e50">java_compiler.py</text>
<text xml:space="preserve" text-anchor="middle" x="823.1" y="-12.75" font-family="Helvetica,sans-Serif" font-size="9.00" fill="#2c3e50">33L</text>
</g>
<!-- root_0&#45;&gt;root_0_5 -->
<g id="edge7" class="edge">
<title>root_0&#45;&gt;root_0_5</title>
<path fill="none" stroke="#7f8c8d" stroke-width="1.5" d="M1244.77,-129C1129.34,-129 823.1,-129 823.1,-129 823.1,-129 823.1,-74.86 823.1,-43.35"/>
</g>
<!-- root_0_6 -->
<g id="node9" class="node">
<title>root_0_6</title>
<path fill="#45b7d1" stroke="black" stroke-width="2" d="M1011.95,-42.6C1011.95,-42.6 934.25,-42.6 934.25,-42.6 928.25,-42.6 922.25,-36.6 922.25,-30.6 922.25,-30.6 922.25,-12 922.25,-12 922.25,-6 928.25,0 934.25,0 934.25,0 1011.95,0 1011.95,0 1017.95,0 1023.95,-6 1023.95,-12 1023.95,-12 1023.95,-30.6 1023.95,-30.6 1023.95,-36.6 1017.95,-42.6 1011.95,-42.6"/>
<text xml:space="preserve" text-anchor="middle" x="973.1" y="-23.25" font-family="Helvetica,sans-Serif" font-size="9.00" fill="#2c3e50">js_compiler.py</text>
<text xml:space="preserve" text-anchor="middle" x="973.1" y="-12.75" font-family="Helvetica,sans-Serif" font-size="9.00" fill="#2c3e50">152L</text>
</g>
<!-- root_0&#45;&gt;root_0_6 -->
<g id="edge8" class="edge">
<title>root_0&#45;&gt;root_0_6</title>
<path fill="none" stroke="#7f8c8d" stroke-width="1.5" d="M1244.63,-124C1158.22,-124 973.1,-124 973.1,-124 973.1,-124 973.1,-73.79 973.1,-43.58"/>
</g>
<!-- root_0_7 -->
<g id="node10" class="node">
<title>root_0_7</title>
<path fill="#45b7d1" stroke="black" stroke-width="2" d="M1174.95,-42.6C1174.95,-42.6 1079.25,-42.6 1079.25,-42.6 1073.25,-42.6 1067.25,-36.6 1067.25,-30.6 1067.25,-30.6 1067.25,-12 1067.25,-12 1067.25,-6 1073.25,0 1079.25,0 1079.25,0 1174.95,0 1174.95,0 1180.95,0 1186.95,-6 1186.95,-12 1186.95,-12 1186.95,-30.6 1186.95,-30.6 1186.95,-36.6 1180.95,-42.6 1174.95,-42.6"/>
<text xml:space="preserve" text-anchor="middle" x="1127.1" y="-23.25" font-family="Helvetica,sans-Serif" font-size="9.00" fill="#2c3e50">jython_compiler.py</text>
<text xml:space="preserve" text-anchor="middle" x="1127.1" y="-12.75" font-family="Helvetica,sans-Serif" font-size="9.00" fill="#2c3e50">20L</text>
</g>
<!-- root_0&#45;&gt;root_0_7 -->
<g id="edge9" class="edge">
<title>root_0&#45;&gt;root_0_7</title>
<path fill="none" stroke="#7f8c8d" stroke-width="1.5" d="M1244.53,-119C1196.85,-119 1127.1,-119 1127.1,-119 1127.1,-119 1127.1,-72.3 1127.1,-43.47"/>
</g>
<!-- root_0_8 -->
<g id="node11" class="node">
<title>root_0_8</title>
<path fill="#45b7d1" stroke="black" stroke-width="2" d="M1334.45,-42.6C1334.45,-42.6 1241.75,-42.6 1241.75,-42.6 1235.75,-42.6 1229.75,-36.6 1229.75,-30.6 1229.75,-30.6 1229.75,-12 1229.75,-12 1229.75,-6 1235.75,0 1241.75,0 1241.75,0 1334.45,0 1334.45,0 1340.45,0 1346.45,-6 1346.45,-12 1346.45,-12 1346.45,-30.6 1346.45,-30.6 1346.45,-36.6 1340.45,-42.6 1334.45,-42.6"/>
<text xml:space="preserve" text-anchor="middle" x="1288.1" y="-23.25" font-family="Helvetica,sans-Serif" font-size="9.00" fill="#2c3e50">kotlin_compiler.py</text>
<text xml:space="preserve" text-anchor="middle" x="1288.1" y="-12.75" font-family="Helvetica,sans-Serif" font-size="9.00" fill="#2c3e50">34L</text>
</g>
<!-- root_0&#45;&gt;root_0_8 -->
<g id="edge10" class="edge">
<title>root_0&#45;&gt;root_0_8</title>
<path fill="none" stroke="#7f8c8d" stroke-width="1.5" d="M1288.1,-113.8C1288.1,-93.51 1288.1,-63.6 1288.1,-43.33"/>
</g>
<!-- root_0_9 -->
<g id="node12" class="node">
<title>root_0_9</title>
<path fill="#45b7d1" stroke="black" stroke-width="2" d="M1488.45,-42.6C1488.45,-42.6 1401.75,-42.6 1401.75,-42.6 1395.75,-42.6 1389.75,-36.6 1389.75,-30.6 1389.75,-30.6 1389.75,-12 1389.75,-12 1389.75,-6 1395.75,0 1401.75,0 1401.75,0 1488.45,0 1488.45,0 1494.45,0 1500.45,-6 1500.45,-12 1500.45,-12 1500.45,-30.6 1500.45,-30.6 1500.45,-36.6 1494.45,-42.6 1488.45,-42.6"/>
<text xml:space="preserve" text-anchor="middle" x="1445.1" y="-23.25" font-family="Helvetica,sans-Serif" font-size="9.00" fill="#2c3e50">php_compiler.py</text>
<text xml:space="preserve" text-anchor="middle" x="1445.1" y="-12.75" font-family="Helvetica,sans-Serif" font-size="9.00" fill="#2c3e50">20L</text>
</g>
<!-- root_0&#45;&gt;root_0_9 -->
<g id="edge11" class="edge">
<title>root_0&#45;&gt;root_0_9</title>
<path fill="none" stroke="#7f8c8d" stroke-width="1.5" d="M1331.42,-119C1377.89,-119 1445.1,-119 1445.1,-119 1445.1,-119 1445.1,-72.3 1445.1,-43.47"/>
</g>
<!-- root_0_10 -->
<g id="node13" class="node">
<title>root_0_10</title>
<path fill="#45b7d1" stroke="black" stroke-width="2" d="M1654.45,-42.6C1654.45,-42.6 1555.75,-42.6 1555.75,-42.6 1549.75,-42.6 1543.75,-36.6 1543.75,-30.6 1543.75,-30.6 1543.75,-12 1543.75,-12 1543.75,-6 1549.75,0 1555.75,0 1555.75,0 1654.45,0 1654.45,0 1660.45,0 1666.45,-6 1666.45,-12 1666.45,-12 1666.45,-30.6 1666.45,-30.6 1666.45,-36.6 1660.45,-42.6 1654.45,-42.6"/>
<text xml:space="preserve" text-anchor="middle" x="1605.1" y="-23.25" font-family="Helvetica,sans-Serif" font-size="9.00" fill="#2c3e50">python_compiler.py</text>
<text xml:space="preserve" text-anchor="middle" x="1605.1" y="-12.75" font-family="Helvetica,sans-Serif" font-size="9.00" fill="#2c3e50">65L</text>
</g>
<!-- root_0&#45;&gt;root_0_10 -->
<g id="edge12" class="edge">
<title>root_0&#45;&gt;root_0_10</title>
<path fill="none" stroke="#7f8c8d" stroke-width="1.5" d="M1331.51,-129C1418.33,-129 1605.1,-129 1605.1,-129 1605.1,-129 1605.1,-74.86 1605.1,-43.35"/>
</g>
<!-- root_0_11 -->
<g id="node14" class="node">
<title>root_0_11</title>
<path fill="#45b7d1" stroke="black" stroke-width="2" d="M1795.07,-42.6C1795.07,-42.6 1721.12,-42.6 1721.12,-42.6 1715.12,-42.6 1709.12,-36.6 1709.12,-30.6 1709.12,-30.6 1709.12,-12 1709.12,-12 1709.12,-6 1715.12,0 1721.12,0 1721.12,0 1795.07,0 1795.07,0 1801.07,0 1807.07,-6 1807.07,-12 1807.07,-12 1807.07,-30.6 1807.07,-30.6 1807.07,-36.6 1801.07,-42.6 1795.07,-42.6"/>
<text xml:space="preserve" text-anchor="middle" x="1758.1" y="-23.25" font-family="Helvetica,sans-Serif" font-size="9.00" fill="#2c3e50">r_compiler.py</text>
<text xml:space="preserve" text-anchor="middle" x="1758.1" y="-12.75" font-family="Helvetica,sans-Serif" font-size="9.00" fill="#2c3e50">20L</text>
</g>
<!-- root_0&#45;&gt;root_0_11 -->
<g id="edge13" class="edge">
<title>root_0&#45;&gt;root_0_11</title>
<path fill="none" stroke="#7f8c8d" stroke-width="1.5" d="M1331.47,-134C1447.83,-134 1758.1,-134 1758.1,-134 1758.1,-134 1758.1,-76.41 1758.1,-43.57"/>
</g>
<!-- root_0_12 -->
<g id="node15" class="node">
<title>root_0_12</title>
<path fill="#45b7d1" stroke="black" stroke-width="2" d="M1950.57,-42.6C1950.57,-42.6 1861.62,-42.6 1861.62,-42.6 1855.62,-42.6 1849.62,-36.6 1849.62,-30.6 1849.62,-30.6 1849.62,-12 1849.62,-12 1849.62,-6 1855.62,0 1861.62,0 1861.62,0 1950.57,0 1950.57,0 1956.57,0 1962.57,-6 1962.57,-12 1962.57,-12 1962.57,-30.6 1962.57,-30.6 1962.57,-36.6 1956.57,-42.6 1950.57,-42.6"/>
<text xml:space="preserve" text-anchor="middle" x="1906.1" y="-23.25" font-family="Helvetica,sans-Serif" font-size="9.00" fill="#2c3e50">ruby_compiler.py</text>
<text xml:space="preserve" text-anchor="middle" x="1906.1" y="-12.75" font-family="Helvetica,sans-Serif" font-size="9.00" fill="#2c3e50">20L</text>
</g>
<!-- root_0&#45;&gt;root_0_12 -->
<g id="edge14" class="edge">
<title>root_0&#45;&gt;root_0_12</title>
<path fill="none" stroke="#7f8c8d" stroke-width="1.5" d="M1331.56,-138C1472.23,-138 1906.1,-138 1906.1,-138 1906.1,-138 1906.1,-77.38 1906.1,-43.53"/>
</g>
<!-- root_0_13 -->
<g id="node16" class="node">
<title>root_0_13</title>
<path fill="#45b7d1" stroke="black" stroke-width="2" d="M2103.07,-42.6C2103.07,-42.6 2017.12,-42.6 2017.12,-42.6 2011.12,-42.6 2005.12,-36.6 2005.12,-30.6 2005.12,-30.6 2005.12,-12 2005.12,-12 2005.12,-6 2011.12,0 2017.12,0 2017.12,0 2103.07,0 2103.07,0 2109.07,0 2115.07,-6 2115.07,-12 2115.07,-12 2115.07,-30.6 2115.07,-30.6 2115.07,-36.6 2109.07,-42.6 2103.07,-42.6"/>
<text xml:space="preserve" text-anchor="middle" x="2060.1" y="-23.25" font-family="Helvetica,sans-Serif" font-size="9.00" fill="#2c3e50">rust_compiler.py</text>
<text xml:space="preserve" text-anchor="middle" x="2060.1" y="-12.75" font-family="Helvetica,sans-Serif" font-size="9.00" fill="#2c3e50">31L</text>
</g>
<!-- root_0&#45;&gt;root_0_13 -->
<g id="edge15" class="edge">
<title>root_0&#45;&gt;root_0_13</title>
<path fill="none" stroke="#7f8c8d" stroke-width="1.5" d="M1331.54,-143C1494.48,-143 2060.1,-143 2060.1,-143 2060.1,-143 2060.1,-78.41 2060.1,-43.34"/>
</g>
<!-- root_0_14 -->
<g id="node17" class="node">
<title>root_0_14</title>
<path fill="#45b7d1" stroke="black" stroke-width="2" d="M2258.57,-42.6C2258.57,-42.6 2169.62,-42.6 2169.62,-42.6 2163.62,-42.6 2157.62,-36.6 2157.62,-30.6 2157.62,-30.6 2157.62,-12 2157.62,-12 2157.62,-6 2163.62,0 2169.62,0 2169.62,0 2258.57,0 2258.57,0 2264.57,0 2270.57,-6 2270.57,-12 2270.57,-12 2270.57,-30.6 2270.57,-30.6 2270.57,-36.6 2264.57,-42.6 2258.57,-42.6"/>
<text xml:space="preserve" text-anchor="middle" x="2214.1" y="-23.25" font-family="Helvetica,sans-Serif" font-size="9.00" fill="#2c3e50">swift_compiler.py</text>
<text xml:space="preserve" text-anchor="middle" x="2214.1" y="-12.75" font-family="Helvetica,sans-Serif" font-size="9.00" fill="#2c3e50">28L</text>
</g>
<!-- root_0&#45;&gt;root_0_14 -->
<g id="edge16" class="edge">
<title>root_0&#45;&gt;root_0_14</title>
<path fill="none" stroke="#7f8c8d" stroke-width="1.5" d="M1331.52,-148C1514.59,-148 2214.1,-148 2214.1,-148 2214.1,-148 2214.1,-79.67 2214.1,-43.37"/>
</g>
<!-- root_0_15 -->
<g id="node18" class="node">
<title>root_0_15</title>
<path fill="#45b7d1" stroke="black" stroke-width="2" d="M2402.95,-42.6C2402.95,-42.6 2325.25,-42.6 2325.25,-42.6 2319.25,-42.6 2313.25,-36.6 2313.25,-30.6 2313.25,-30.6 2313.25,-12 2313.25,-12 2313.25,-6 2319.25,0 2325.25,0 2325.25,0 2402.95,0 2402.95,0 2408.95,0 2414.95,-6 2414.95,-12 2414.95,-12 2414.95,-30.6 2414.95,-30.6 2414.95,-36.6 2408.95,-42.6 2402.95,-42.6"/>
<text xml:space="preserve" text-anchor="middle" x="2364.1" y="-23.25" font-family="Helvetica,sans-Serif" font-size="9.00" fill="#2c3e50">ts_compiler.py</text>
<text xml:space="preserve" text-anchor="middle" x="2364.1" y="-12.75" font-family="Helvetica,sans-Serif" font-size="9.00" fill="#2c3e50">20L</text>
</g>
<!-- root_0&#45;&gt;root_0_15 -->
<g id="edge17" class="edge">
<title>root_0&#45;&gt;root_0_15</title>
<path fill="none" stroke="#7f8c8d" stroke-width="1.5" d="M1331.61,-152C1532.92,-152 2364.1,-152 2364.1,-152 2364.1,-152 2364.1,-80.76 2364.1,-43.47"/>
</g>
<!-- root_1_0 -->
<g id="node20" class="node">
<title>root_1_0</title>
<path fill="#45b7d1" stroke="black" stroke-width="2" d="M2534.2,-42.6C2534.2,-42.6 2470,-42.6 2470,-42.6 2464,-42.6 2458,-36.6 2458,-30.6 2458,-30.6 2458,-12 2458,-12 2458,-6 2464,0 2470,0 2470,0 2534.2,0 2534.2,0 2540.2,0 2546.2,-6 2546.2,-12 2546.2,-12 2546.2,-30.6 2546.2,-30.6 2546.2,-36.6 2540.2,-42.6 2534.2,-42.6"/>
<text xml:space="preserve" text-anchor="middle" x="2502.1" y="-23.25" font-family="Helvetica,sans-Serif" font-size="9.00" fill="#2c3e50">__init__.py</text>
<text xml:space="preserve" text-anchor="middle" x="2502.1" y="-12.75" font-family="Helvetica,sans-Serif" font-size="9.00" fill="#2c3e50">2L</text>
</g>
<!-- root_1&#45;&gt;root_1_0 -->
<g id="edge19" class="edge">
<title>root_1&#45;&gt;root_1_0</title>
<path fill="none" stroke="#7f8c8d" stroke-width="1.5" d="M2647.55,-124C2591.4,-124 2502.1,-124 2502.1,-124 2502.1,-124 2502.1,-73.79 2502.1,-43.58"/>
</g>
<!-- root_1_1 -->
<g id="node21" class="node">
<title>root_1_1</title>
<path fill="#45b7d1" stroke="black" stroke-width="2" d="M2699.45,-42.6C2699.45,-42.6 2600.75,-42.6 2600.75,-42.6 2594.75,-42.6 2588.75,-36.6 2588.75,-30.6 2588.75,-30.6 2588.75,-12 2588.75,-12 2588.75,-6 2594.75,0 2600.75,0 2600.75,0 2699.45,0 2699.45,0 2705.45,0 2711.45,-6 2711.45,-12 2711.45,-12 2711.45,-30.6 2711.45,-30.6 2711.45,-36.6 2705.45,-42.6 2699.45,-42.6"/>
<text xml:space="preserve" text-anchor="middle" x="2650.1" y="-23.25" font-family="Helvetica,sans-Serif" font-size="9.00" fill="#2c3e50">constant_folding.py</text>
<text xml:space="preserve" text-anchor="middle" x="2650.1" y="-12.75" font-family="Helvetica,sans-Serif" font-size="9.00" fill="#2c3e50">20L</text>
</g>
<!-- root_1&#45;&gt;root_1_1 -->
<g id="edge20" class="edge">
<title>root_1&#45;&gt;root_1_1</title>
<path fill="none" stroke="#7f8c8d" stroke-width="1.5" d="M2679.91,-113.8C2679.91,-93.51 2679.91,-63.6 2679.91,-43.33"/>
</g>
<!-- root_1_2 -->
<g id="node22" class="node">
<title>root_1_2</title>
<path fill="#45b7d1" stroke="black" stroke-width="2" d="M2836.2,-42.6C2836.2,-42.6 2766,-42.6 2766,-42.6 2760,-42.6 2754,-36.6 2754,-30.6 2754,-30.6 2754,-12 2754,-12 2754,-6 2760,0 2766,0 2766,0 2836.2,0 2836.2,0 2842.2,0 2848.2,-6 2848.2,-12 2848.2,-12 2848.2,-30.6 2848.2,-30.6 2848.2,-36.6 2842.2,-42.6 2836.2,-42.6"/>
<text xml:space="preserve" text-anchor="middle" x="2801.1" y="-23.25" font-family="Helvetica,sans-Serif" font-size="9.00" fill="#2c3e50">peephole.py</text>
<text xml:space="preserve" text-anchor="middle" x="2801.1" y="-12.75" font-family="Helvetica,sans-Serif" font-size="9.00" fill="#2c3e50">22L</text>
</g>
<!-- root_1&#45;&gt;root_1_2 -->
<g id="edge21" class="edge">
<title>root_1&#45;&gt;root_1_2</title>
<path fill="none" stroke="#7f8c8d" stroke-width="1.5" d="M2723.64,-113.75C2723.64,-80.36 2723.64,-21 2723.64,-21 2723.64,-21 2737.42,-21 2753.36,-21"/>
</g>
<!-- root_2_0 -->
<g id="node24" class="node">
<title>root_2_0</title>
<path fill="#45b7d1" stroke="black" stroke-width="2" d="M2967.2,-42.6C2967.2,-42.6 2903,-42.6 2903,-42.6 2897,-42.6 2891,-36.6 2891,-30.6 2891,-30.6 2891,-12 2891,-12 2891,-6 2897,0 2903,0 2903,0 2967.2,0 2967.2,0 2973.2,0 2979.2,-6 2979.2,-12 2979.2,-12 2979.2,-30.6 2979.2,-30.6 2979.2,-36.6 2973.2,-42.6 2967.2,-42.6"/>
<text xml:space="preserve" text-anchor="middle" x="2935.1" y="-23.25" font-family="Helvetica,sans-Serif" font-size="9.00" fill="#2c3e50">__init__.py</text>
<text xml:space="preserve" text-anchor="middle" x="2935.1" y="-12.75" font-family="Helvetica,sans-Serif" font-size="9.00" fill="#2c3e50">2L</text>
</g>
<!-- root_2&#45;&gt;root_2_0 -->
<g id="edge23" class="edge">
<title>root_2&#45;&gt;root_2_0</title>
<path fill="none" stroke="#7f8c8d" stroke-width="1.5" d="M2902.03,-113.8C2902.03,-93.51 2902.03,-63.6 2902.03,-43.33"/>
</g>
<!-- root_2_1 -->
<g id="node25" class="node">
<title>root_2_1</title>
<path fill="#45b7d1" stroke="black" stroke-width="2" d="M3111.57,-42.6C3111.57,-42.6 3034.62,-42.6 3034.62,-42.6 3028.62,-42.6 3022.62,-36.6 3022.62,-30.6 3022.62,-30.6 3022.62,-12 3022.62,-12 3022.62,-6 3028.62,0 3034.62,0 3034.62,0 3111.57,0 3111.57,0 3117.57,0 3123.57,-6 3123.57,-12 3123.57,-12 3123.57,-30.6 3123.57,-30.6 3123.57,-36.6 3117.57,-42.6 3111.57,-42.6"/>
<text xml:space="preserve" text-anchor="middle" x="3073.1" y="-23.25" font-family="Helvetica,sans-Serif" font-size="9.00" fill="#2c3e50">ai_pipeline.py</text>
<text xml:space="preserve" text-anchor="middle" x="3073.1" y="-12.75" font-family="Helvetica,sans-Serif" font-size="9.00" fill="#2c3e50">13L</text>
</g>
<!-- root_2&#45;&gt;root_2_1 -->
<g id="edge24" class="edge">
<title>root_2&#45;&gt;root_2_1</title>
<path fill="none" stroke="#7f8c8d" stroke-width="1.5" d="M2913.05,-113.74C2913.05,-97.76 2913.05,-79 2913.05,-79 2913.05,-79 3038.91,-79 3038.91,-79 3038.91,-79 3038.91,-59.72 3038.91,-43.44"/>
</g>
<!-- leg_dir -->
<g id="node28" class="node">
<title>leg_dir</title>
<polygon fill="#4ecdc4" stroke="black" stroke-width="2" points="3341.07,-265.2 3338.07,-269.2 3317.07,-269.2 3314.07,-265.2 3261.12,-265.2 3261.12,-229.2 3341.07,-229.2 3341.07,-265.2"/>
<text xml:space="preserve" text-anchor="middle" x="3301.1" y="-243.9" font-family="Helvetica,sans-Serif" font-size="9.00" fill="white">Directory</text>
</g>
<!-- leg_py -->
<g id="node29" class="node">
<title>leg_py</title>
<path fill="#45b7d1" stroke="black" stroke-width="2" d="M3333.57,-153.9C3333.57,-153.9 3268.62,-153.9 3268.62,-153.9 3262.62,-153.9 3256.62,-147.9 3256.62,-141.9 3256.62,-141.9 3256.62,-129.9 3256.62,-129.9 3256.62,-123.9 3262.62,-117.9 3268.62,-117.9 3268.62,-117.9 3333.57,-117.9 3333.57,-117.9 3339.57,-117.9 3345.57,-123.9 3345.57,-129.9 3345.57,-129.9 3345.57,-141.9 3345.57,-141.9 3345.57,-147.9 3339.57,-153.9 3333.57,-153.9"/>
<text xml:space="preserve" text-anchor="middle" x="3301.1" y="-132.6" font-family="Helvetica,sans-Serif" font-size="9.00" fill="#2c3e50">Python File</text>
</g>
<!-- leg_dir&#45;&gt;leg_py -->
</g>
</svg>
